<svg width="40" height="40" viewBox="0 0 40 40" fill="none" xmlns="http://www.w3.org/2000/svg">
<path d="M11.668 13.333C14.4294 13.333 16.668 11.0944 16.668 8.33301C16.668 5.57158 14.4294 3.33301 11.668 3.33301C8.90654 3.33301 6.66797 5.57158 6.66797 8.33301C6.66797 11.0944 8.90654 13.333 11.668 13.333Z" stroke="#6E6A77" stroke-width="3"/>
<path d="M16.6681 20H9.8314C8.61294 20.0003 7.43653 20.4456 6.52321 21.2521C5.60988 22.0587 5.02249 23.1709 4.8714 24.38L3.80307 32.92C3.74446 33.389 3.78627 33.8652 3.92574 34.3169C4.06522 34.7685 4.29915 35.1853 4.61203 35.5397C4.92491 35.894 5.30957 36.1777 5.74048 36.372C6.17139 36.5663 6.63871 36.6668 7.1114 36.6667H15.0014L16.6681 20ZM36.1997 32.92L35.1331 24.38C34.9819 23.1704 34.394 22.0576 33.48 21.251C32.566 20.4444 31.3888 19.9995 30.1697 20H26.4964C25.2779 20.0003 24.1015 20.4456 23.1882 21.2521C22.2749 22.0587 21.6875 23.1709 21.5364 24.38L20.4681 32.92C20.4094 33.3892 20.4513 33.8655 20.5909 34.3172C20.7304 34.769 20.9645 35.1859 21.2776 35.5403C21.5906 35.8946 21.9755 36.1783 22.4066 36.3725C22.8377 36.5667 23.3052 36.667 23.7781 36.6667H32.8914C33.3641 36.6668 33.8314 36.5663 34.2623 36.372C34.6932 36.1777 35.0779 35.894 35.3908 35.5397C35.7037 35.1853 35.9376 34.7685 36.0771 34.3169C36.2165 33.8652 36.2584 33.389 36.1997 32.92Z" stroke="#6E6A77" stroke-width="3" stroke-linecap="round" stroke-linejoin="round"/>
<path d="M28.3359 13.333C31.0974 13.333 33.3359 11.0944 33.3359 8.33301C33.3359 5.57158 31.0974 3.33301 28.3359 3.33301C25.5745 3.33301 23.3359 5.57158 23.3359 8.33301C23.3359 11.0944 25.5745 13.333 28.3359 13.333Z" stroke="#6E6A77" stroke-width="3"/>
</svg>
