<svg width="40" height="40" viewBox="0 0 40 40" fill="none" xmlns="http://www.w3.org/2000/svg">
<path d="M20 36.666C28.2843 36.666 35 29.9503 35 21.666C35 13.3817 28.2843 6.66602 20 6.66602C11.7157 6.66602 5 13.3817 5 21.666C5 29.9503 11.7157 36.666 20 36.666Z" stroke="#6E6A77" stroke-width="3" stroke-linecap="round" stroke-linejoin="round"/>
<path d="M19.9987 6.66634V3.33301M25.832 15.833L19.9987 21.6663L25.832 15.833ZM31.6654 31.6663L33.332 36.6663L31.6654 31.6663ZM8.33203 31.6663L6.66536 36.6663L8.33203 31.6663ZM3.33203 8.33301L8.33203 3.33301L3.33203 8.33301ZM31.6654 3.33301L36.6654 8.33301L31.6654 3.33301Z" stroke="#6E6A77" stroke-width="3" stroke-linecap="round" stroke-linejoin="round"/>
</svg>
