<svg width="16" height="16" viewBox="0 0 16 16" fill="none" xmlns="http://www.w3.org/2000/svg">
<path d="M6.5 7C6.36739 7 6.24021 7.05268 6.14645 7.14645C6.05268 7.24021 6 7.36739 6 7.5C6 7.63261 6.05268 7.75979 6.14645 7.85355C6.24021 7.94732 6.36739 8 6.5 8H8.6715C9.05394 7.69016 9.48467 7.44523 9.9465 7.275C9.90483 7.19232 9.84103 7.12282 9.76219 7.07427C9.68336 7.02571 9.59259 7 9.5 7H6.5ZM4.75 13.5H7.4675C7.6485 13.864 7.8775 14.2 8.146 14.5H4.75C4.02065 14.5 3.32118 14.2103 2.80546 13.6945C2.28973 13.1788 2 12.4793 2 11.75V5.118C1.693 4.843 1.5 4.444 1.5 4V3C1.5 2.60218 1.65804 2.22064 1.93934 1.93934C2.22064 1.65804 2.60218 1.5 3 1.5H13C13.3978 1.5 13.7794 1.65804 14.0607 1.93934C14.342 2.22064 14.5 2.60218 14.5 3V4C14.5003 4.21109 14.4559 4.41985 14.3697 4.61255C14.2836 4.80525 14.1575 4.97751 14 5.118V7.758C13.6889 7.54957 13.353 7.38092 13 7.256V5.5H3V11.75C3 12.2141 3.18437 12.6592 3.51256 12.9874C3.84075 13.3156 4.28587 13.5 4.75 13.5ZM3 2.5C2.86739 2.5 2.74021 2.55268 2.64645 2.64645C2.55268 2.74021 2.5 2.86739 2.5 3V4C2.5 4.13261 2.55268 4.25979 2.64645 4.35355C2.74021 4.44732 2.86739 4.5 3 4.5H13C13.1326 4.5 13.2598 4.44732 13.3536 4.35355C13.4473 4.25979 13.5 4.13261 13.5 4V3C13.5 2.86739 13.4473 2.74021 13.3536 2.64645C13.2598 2.55268 13.1326 2.5 13 2.5H3ZM11.5 15.25C12.4946 15.25 13.4484 14.8549 14.1517 14.1517C14.8549 13.4484 15.25 12.4946 15.25 11.5C15.25 10.5054 14.8549 9.55161 14.1517 8.84835C13.4484 8.14509 12.4946 7.75 11.5 7.75C10.5054 7.75 9.55161 8.14509 8.84835 8.84835C8.14509 9.55161 7.75 10.5054 7.75 11.5C7.75 12.4946 8.14509 13.4484 8.84835 14.1517C9.55161 14.8549 10.5054 15.25 11.5 15.25ZM10.89 10.14L10.28 10.75H11.625C12.1886 10.75 12.7291 10.9739 13.1276 11.3724C13.5261 11.7709 13.75 12.3114 13.75 12.875V13.125C13.75 13.2245 13.7105 13.3198 13.6402 13.3902C13.5698 13.4605 13.4745 13.5 13.375 13.5C13.2755 13.5 13.1802 13.4605 13.1098 13.3902C13.0395 13.3198 13 13.2245 13 13.125V12.875C13 12.6944 12.9644 12.5156 12.8953 12.3488C12.8262 12.182 12.725 12.0304 12.5973 11.9027C12.4696 11.775 12.318 11.6738 12.1512 11.6047C11.9844 11.5356 11.8056 11.5 11.625 11.5H10.28L10.89 12.11C10.9268 12.1443 10.9564 12.1857 10.9769 12.2317C10.9974 12.2777 11.0084 12.3274 11.0093 12.3777C11.0102 12.4281 11.0009 12.4781 10.9821 12.5248C10.9632 12.5715 10.9351 12.6139 10.8995 12.6495C10.8639 12.6851 10.8215 12.7132 10.7748 12.7321C10.7281 12.7509 10.6781 12.7602 10.6277 12.7593C10.5774 12.7584 10.5277 12.7474 10.4817 12.7269C10.4357 12.7064 10.3943 12.6768 10.36 12.64L9.11 11.39C9.03977 11.3197 9.00033 11.2244 9.00033 11.125C9.00033 11.0256 9.03977 10.9303 9.11 10.86L10.36 9.61C10.3943 9.57316 10.4357 9.54361 10.4817 9.52311C10.5277 9.50261 10.5774 9.49159 10.6277 9.4907C10.6781 9.48982 10.7281 9.49908 10.7748 9.51794C10.8215 9.5368 10.8639 9.56487 10.8995 9.60048C10.9351 9.63609 10.9632 9.67851 10.9821 9.7252C11.0009 9.7719 11.0102 9.82191 11.0093 9.87226C11.0084 9.92261 10.9974 9.97227 10.9769 10.0183C10.9564 10.0643 10.9268 10.1057 10.89 10.14Z" fill="#895FFF"/>
</svg>
