<svg width="16" height="16" viewBox="0 0 16 16" fill="none" xmlns="http://www.w3.org/2000/svg">
<path d="M8.50031 13.5859V6.53687H7.50031V13.5859L5.879 11.9646L5.17188 12.6716L8.00031 15.5001L10.8288 12.6716L10.1216 11.9646L8.50031 13.5859Z" fill="#895FFF"/>
<path d="M12.5 5.03687C12.5 2.55562 10.4812 0.536865 8 0.536865C5.51875 0.536865 3.5 2.55562 3.5 5.03687C2.70435 5.03687 1.94129 5.35294 1.37868 5.91555C0.81607 6.47816 0.5 7.24122 0.5 8.03687C0.5 8.83252 0.81607 9.59558 1.37868 10.1582C1.94129 10.7208 2.70435 11.0369 3.5 11.0369H6V10.0369H3.5C2.96957 10.0369 2.46086 9.82616 2.08579 9.45109C1.71071 9.07601 1.5 8.5673 1.5 8.03687C1.5 7.50644 1.71071 6.99773 2.08579 6.62266C2.46086 6.24758 2.96957 6.03687 3.5 6.03687H4.5V5.03687C4.5 4.10861 4.86875 3.21837 5.52513 2.56199C6.1815 1.90561 7.07174 1.53687 8 1.53687C8.92826 1.53687 9.8185 1.90561 10.4749 2.56199C11.1313 3.21837 11.5 4.10861 11.5 5.03687V6.03687H12.5C13.0304 6.03687 13.5391 6.24758 13.9142 6.62266C14.2893 6.99773 14.5 7.50644 14.5 8.03687C14.5 8.5673 14.2893 9.07601 13.9142 9.45109C13.5391 9.82616 13.0304 10.0369 12.5 10.0369H10V11.0369H12.5C13.2956 11.0369 14.0587 10.7208 14.6213 10.1582C15.1839 9.59558 15.5 8.83252 15.5 8.03687C15.5 7.24122 15.1839 6.47816 14.6213 5.91555C14.0587 5.35294 13.2956 5.03687 12.5 5.03687Z" fill="#895FFF"/>
</svg>
