<svg width="16" height="16" viewBox="0 0 16 16" fill="none" xmlns="http://www.w3.org/2000/svg">
<path d="M5.33333 10.6667V11.3334C5.33333 11.8638 5.54405 12.3726 5.91912 12.7476C6.29419 13.1227 6.8029 13.3334 7.33333 13.3334H12C12.5304 13.3334 13.0391 13.1227 13.4142 12.7476C13.7893 12.3726 14 11.8638 14 11.3334V4.66675C14 4.13632 13.7893 3.62761 13.4142 3.25253C13.0391 2.87746 12.5304 2.66675 12 2.66675H7.33333C6.8029 2.66675 6.29419 2.87746 5.91912 3.25253C5.54405 3.62761 5.33333 4.13632 5.33333 4.66675V5.33341M8.66667 10.6667L11.3333 8.00008L8.66667 10.6667ZM11.3333 8.00008L8.66667 5.33341L11.3333 8.00008ZM11.3333 8.00008H2H11.3333Z" stroke="#895FFF" stroke-width="1.5" stroke-linecap="round" stroke-linejoin="round"/>
</svg>
