<svg width="40" height="40" viewBox="0 0 40 40" fill="none" xmlns="http://www.w3.org/2000/svg">
<path d="M10 13C10 12.7348 10.1054 12.4804 10.2929 12.2929C10.4804 12.1054 10.7348 12 11 12H25C25.2652 12 25.5196 12.1054 25.7071 12.2929C25.8946 12.4804 26 12.7348 26 13C26 13.2652 25.8946 13.5196 25.7071 13.7071C25.5196 13.8946 25.2652 14 25 14H11C10.7348 14 10.4804 13.8946 10.2929 13.7071C10.1054 13.5196 10 13.2652 10 13ZM21 18C20.7348 18 20.4804 18.1054 20.2929 18.2929C20.1054 18.4804 20 18.7348 20 19C20 19.2652 20.1054 19.5196 20.2929 19.7071C20.4804 19.8946 20.7348 20 21 20H25C25.2652 20 25.5196 19.8946 25.7071 19.7071C25.8946 19.5196 26 19.2652 26 19C26 18.7348 25.8946 18.4804 25.7071 18.2929C25.5196 18.1054 25.2652 18 25 18H21ZM20 25C20 24.7348 20.1054 24.4804 20.2929 24.2929C20.4804 24.1054 20.7348 24 21 24H25C25.2652 24 25.5196 24.1054 25.7071 24.2929C25.8946 24.4804 26 24.7348 26 25C26 25.2652 25.8946 25.5196 25.7071 25.7071C25.5196 25.8946 25.2652 26 25 26H21C20.7348 26 20.4804 25.8946 20.2929 25.7071C20.1054 25.5196 20 25.2652 20 25ZM11 18C10.7348 18 10.4804 18.1054 10.2929 18.2929C10.1054 18.4804 10 18.7348 10 19V25C10 25.2652 10.1054 25.5196 10.2929 25.7071C10.4804 25.8946 10.7348 26 11 26H17C17.2652 26 17.5196 25.8946 17.7071 25.7071C17.8946 25.5196 18 25.2652 18 25V19C18 18.7348 17.8946 18.4804 17.7071 18.2929C17.5196 18.1054 17.2652 18 17 18H11ZM12 24V20H16V24H12ZM4 10C4 8.93913 4.42143 7.92172 5.17157 7.17157C5.92172 6.42143 6.93913 6 8 6H28C29.0609 6 30.0783 6.42143 30.8284 7.17157C31.5786 7.92172 32 8.93913 32 10V12C33.0609 12 34.0783 12.4214 34.8284 13.1716C35.5786 13.9217 36 14.9391 36 16V27C36 28.3261 35.4732 29.5979 34.5355 30.5355C33.5979 31.4732 32.3261 32 31 32H9C7.67392 32 6.40215 31.4732 5.46447 30.5355C4.52678 29.5979 4 28.3261 4 27V10ZM30 10C30 9.46957 29.7893 8.96086 29.4142 8.58579C29.0391 8.21071 28.5304 8 28 8H8C7.46957 8 6.96086 8.21071 6.58579 8.58579C6.21071 8.96086 6 9.46957 6 10V27C6 27.7956 6.31607 28.5587 6.87868 29.1213C7.44129 29.6839 8.20435 30 9 30H31C31.7956 30 32.5587 29.6839 33.1213 29.1213C33.6839 28.5587 34 27.7956 34 27V16C34 15.4696 33.7893 14.9609 33.4142 14.5858C33.0391 14.2107 32.5304 14 32 14V27C32 27.2652 31.8946 27.5196 31.7071 27.7071C31.5196 27.8946 31.2652 28 31 28C30.7348 28 30.4804 27.8946 30.2929 27.7071C30.1054 27.5196 30 27.2652 30 27V10Z" fill="#6E6A77"/>
</svg>
