<svg width="16" height="16" viewBox="0 0 16 16" fill="none" xmlns="http://www.w3.org/2000/svg">
<path d="M10 5H13V6H10V5ZM10 7.5H13V8.5H10V7.5ZM10 10H13V11H10V10Z" fill="#895FFF"/>
<path d="M14.8571 2H1.14286C0.839845 2.00029 0.549331 2.11532 0.335069 2.31984C0.120808 2.52436 0.000302558 2.80167 0 3.09091V12.9091C0.000302558 13.1983 0.120808 13.4756 0.335069 13.6802C0.549331 13.8847 0.839845 13.9997 1.14286 14H14.8571C15.1601 13.9996 15.4505 13.8845 15.6648 13.68C15.879 13.4755 15.9995 13.1983 16 12.9091V3.09091C15.9997 2.80167 15.8792 2.52436 15.6649 2.31984C15.4507 2.11532 15.1602 2.00029 14.8571 2ZM1.14286 3.09091H7.42857V12.9091H1.14286V3.09091ZM8.57143 12.9091V3.09091H14.8571L14.8583 12.9091H8.57143Z" fill="#895FFF"/>
</svg>
